<svg xmlns="http://www.w3.org/2000/svg" width="23" height="24" viewBox="0 0 23 24">
    <path fill="#ADB4BA" d="M20.313 23.625c.677 0 1.252-.237 1.726-.71.474-.475.711-1.05.711-1.727V3.313c0-.678-.237-1.253-.71-1.727-.475-.474-1.05-.711-1.727-.711H2.438c-.678 0-1.253.237-1.727.71C.237 2.06 0 2.636 0 3.314v17.875c0 .677.237 1.252.71 1.726.475.474 1.05.711 1.728.711h17.875zm0-1.625H2.438c-.237 0-.432-.076-.584-.229-.153-.152-.229-.347-.229-.584V3.313c0-.236.076-.431.229-.583.152-.153.347-.229.583-.229h17.875c.237 0 .432.076.584.229.153.152.229.347.229.583v17.875c0 .237-.076.432-.229.584-.152.153-.347.229-.584.229zm-9.141-3.3c.17 0 .321-.068.457-.204l.355-.305c.102-.135.153-.287.153-.457 0-.169-.068-.321-.203-.457l-4.317-4.164h9.649c.169 0 .313-.059.431-.177.119-.119.178-.263.178-.432v-.508c0-.17-.06-.313-.178-.432-.118-.118-.262-.177-.431-.177H7.617l4.317-4.215c.135-.102.203-.237.203-.406 0-.17-.068-.322-.203-.457l-.305-.356c-.136-.101-.288-.152-.457-.152-.17 0-.305.05-.406.152l-5.891 5.84c-.102.135-.152.288-.152.457 0 .17.05.305.152.406l5.89 5.84h-.05c.135.136.288.203.457.203z"/>
</svg>
